<mxfile host="app.diagrams.net" modified="2023-08-05T08:04:15.920Z" agent="Mozilla/5.0 (Windows NT 10.0; Win64; x64) AppleWebKit/537.36 (KHTML, like Gecko) Chrome/115.0.0.0 Safari/537.36 Edg/115.0.1901.188" etag="YP4CUec0uWYo1ZcbXpQs" version="21.6.3" type="device">
  <diagram name="第 1 页" id="5xOEP-58aHZCTv0gC4Fh">
    <mxGraphModel dx="585" dy="656" grid="1" gridSize="10" guides="1" tooltips="1" connect="1" arrows="1" fold="1" page="1" pageScale="1" pageWidth="827" pageHeight="1169" math="0" shadow="0">
      <root>
        <mxCell id="0" />
        <mxCell id="1" parent="0" />
        <mxCell id="-P5G61NLytEn9Pn_Injq-4" value="" style="edgeStyle=orthogonalEdgeStyle;rounded=0;orthogonalLoop=1;jettySize=auto;html=1;" edge="1" parent="1" source="-P5G61NLytEn9Pn_Injq-1" target="-P5G61NLytEn9Pn_Injq-2">
          <mxGeometry relative="1" as="geometry" />
        </mxCell>
        <mxCell id="-P5G61NLytEn9Pn_Injq-1" value="复位,初始化外设" style="rounded=1;whiteSpace=wrap;html=1;" vertex="1" parent="1">
          <mxGeometry x="490" y="150" width="120" height="60" as="geometry" />
        </mxCell>
        <mxCell id="-P5G61NLytEn9Pn_Injq-5" value="" style="edgeStyle=orthogonalEdgeStyle;rounded=0;orthogonalLoop=1;jettySize=auto;html=1;" edge="1" parent="1" source="-P5G61NLytEn9Pn_Injq-2">
          <mxGeometry relative="1" as="geometry">
            <mxPoint x="550" y="350" as="targetPoint" />
          </mxGeometry>
        </mxCell>
        <mxCell id="-P5G61NLytEn9Pn_Injq-2" value="读取历史校准参数&lt;br&gt;建立坐标映射" style="rounded=1;whiteSpace=wrap;html=1;" vertex="1" parent="1">
          <mxGeometry x="490" y="250" width="120" height="60" as="geometry" />
        </mxCell>
        <mxCell id="-P5G61NLytEn9Pn_Injq-15" value="" style="edgeStyle=orthogonalEdgeStyle;rounded=0;orthogonalLoop=1;jettySize=auto;html=1;" edge="1" parent="1" source="-P5G61NLytEn9Pn_Injq-6" target="-P5G61NLytEn9Pn_Injq-14">
          <mxGeometry relative="1" as="geometry" />
        </mxCell>
        <mxCell id="-P5G61NLytEn9Pn_Injq-6" value="执行题目" style="whiteSpace=wrap;html=1;rounded=1;" vertex="1" parent="1">
          <mxGeometry x="490" y="470" width="120" height="60" as="geometry" />
        </mxCell>
        <mxCell id="-P5G61NLytEn9Pn_Injq-9" value="" style="edgeStyle=orthogonalEdgeStyle;rounded=0;orthogonalLoop=1;jettySize=auto;html=1;" edge="1" parent="1" source="-P5G61NLytEn9Pn_Injq-8" target="-P5G61NLytEn9Pn_Injq-6">
          <mxGeometry relative="1" as="geometry" />
        </mxCell>
        <mxCell id="-P5G61NLytEn9Pn_Injq-10" value="触发" style="edgeLabel;html=1;align=center;verticalAlign=middle;resizable=0;points=[];" vertex="1" connectable="0" parent="-P5G61NLytEn9Pn_Injq-9">
          <mxGeometry x="0.1016" relative="1" as="geometry">
            <mxPoint as="offset" />
          </mxGeometry>
        </mxCell>
        <mxCell id="-P5G61NLytEn9Pn_Injq-16" style="edgeStyle=orthogonalEdgeStyle;rounded=0;orthogonalLoop=1;jettySize=auto;html=1;entryX=0;entryY=0.5;entryDx=0;entryDy=0;exitX=0.5;exitY=1;exitDx=0;exitDy=0;" edge="1" parent="1" source="-P5G61NLytEn9Pn_Injq-8" target="-P5G61NLytEn9Pn_Injq-14">
          <mxGeometry relative="1" as="geometry">
            <mxPoint x="359.9999999999999" y="539.9999999999998" as="sourcePoint" />
            <mxPoint x="420" y="630" as="targetPoint" />
            <Array as="points">
              <mxPoint x="370" y="590" />
            </Array>
          </mxGeometry>
        </mxCell>
        <mxCell id="-P5G61NLytEn9Pn_Injq-17" value="触发" style="edgeLabel;html=1;align=center;verticalAlign=middle;resizable=0;points=[];" vertex="1" connectable="0" parent="-P5G61NLytEn9Pn_Injq-16">
          <mxGeometry x="-0.0284" y="1" relative="1" as="geometry">
            <mxPoint as="offset" />
          </mxGeometry>
        </mxCell>
        <mxCell id="-P5G61NLytEn9Pn_Injq-24" value="" style="edgeStyle=orthogonalEdgeStyle;rounded=0;orthogonalLoop=1;jettySize=auto;html=1;" edge="1" parent="1" source="-P5G61NLytEn9Pn_Injq-8" target="-P5G61NLytEn9Pn_Injq-23">
          <mxGeometry relative="1" as="geometry" />
        </mxCell>
        <mxCell id="-P5G61NLytEn9Pn_Injq-28" value="触发" style="edgeLabel;html=1;align=center;verticalAlign=middle;resizable=0;points=[];" vertex="1" connectable="0" parent="-P5G61NLytEn9Pn_Injq-24">
          <mxGeometry x="0.1057" y="2" relative="1" as="geometry">
            <mxPoint as="offset" />
          </mxGeometry>
        </mxCell>
        <mxCell id="-P5G61NLytEn9Pn_Injq-8" value="按键中断" style="rounded=1;whiteSpace=wrap;html=1;" vertex="1" parent="1">
          <mxGeometry x="310" y="470" width="120" height="60" as="geometry" />
        </mxCell>
        <mxCell id="-P5G61NLytEn9Pn_Injq-13" value="" style="edgeStyle=orthogonalEdgeStyle;rounded=0;orthogonalLoop=1;jettySize=auto;html=1;" edge="1" parent="1" source="-P5G61NLytEn9Pn_Injq-12" target="-P5G61NLytEn9Pn_Injq-6">
          <mxGeometry relative="1" as="geometry" />
        </mxCell>
        <mxCell id="-P5G61NLytEn9Pn_Injq-12" value="等待执行题目&lt;br&gt;执行" style="whiteSpace=wrap;html=1;rounded=1;" vertex="1" parent="1">
          <mxGeometry x="490" y="350" width="120" height="60" as="geometry" />
        </mxCell>
        <mxCell id="-P5G61NLytEn9Pn_Injq-20" style="edgeStyle=orthogonalEdgeStyle;rounded=0;orthogonalLoop=1;jettySize=auto;html=1;entryX=1;entryY=0.5;entryDx=0;entryDy=0;" edge="1" parent="1" source="-P5G61NLytEn9Pn_Injq-14" target="-P5G61NLytEn9Pn_Injq-12">
          <mxGeometry relative="1" as="geometry">
            <Array as="points">
              <mxPoint x="660" y="590" />
              <mxPoint x="660" y="380" />
            </Array>
          </mxGeometry>
        </mxCell>
        <mxCell id="-P5G61NLytEn9Pn_Injq-14" value="急停" style="whiteSpace=wrap;html=1;rounded=1;" vertex="1" parent="1">
          <mxGeometry x="490" y="560" width="120" height="60" as="geometry" />
        </mxCell>
        <mxCell id="-P5G61NLytEn9Pn_Injq-19" value="" style="edgeStyle=orthogonalEdgeStyle;rounded=0;orthogonalLoop=1;jettySize=auto;html=1;startArrow=classic;startFill=1;" edge="1" parent="1" source="-P5G61NLytEn9Pn_Injq-18" target="-P5G61NLytEn9Pn_Injq-2">
          <mxGeometry relative="1" as="geometry" />
        </mxCell>
        <mxCell id="-P5G61NLytEn9Pn_Injq-22" value="" style="edgeStyle=orthogonalEdgeStyle;rounded=0;orthogonalLoop=1;jettySize=auto;html=1;startArrow=classic;startFill=1;" edge="1" parent="1" source="-P5G61NLytEn9Pn_Injq-18" target="-P5G61NLytEn9Pn_Injq-21">
          <mxGeometry relative="1" as="geometry" />
        </mxCell>
        <mxCell id="-P5G61NLytEn9Pn_Injq-18" value="串口接收发送" style="rounded=1;whiteSpace=wrap;html=1;" vertex="1" parent="1">
          <mxGeometry x="310" y="250" width="120" height="60" as="geometry" />
        </mxCell>
        <mxCell id="-P5G61NLytEn9Pn_Injq-21" value="K210模块" style="rounded=1;whiteSpace=wrap;html=1;" vertex="1" parent="1">
          <mxGeometry x="310" y="350" width="120" height="60" as="geometry" />
        </mxCell>
        <mxCell id="-P5G61NLytEn9Pn_Injq-30" value="" style="edgeStyle=orthogonalEdgeStyle;rounded=0;orthogonalLoop=1;jettySize=auto;html=1;" edge="1" parent="1" source="-P5G61NLytEn9Pn_Injq-23" target="-P5G61NLytEn9Pn_Injq-29">
          <mxGeometry relative="1" as="geometry" />
        </mxCell>
        <mxCell id="-P5G61NLytEn9Pn_Injq-23" value="校准模块" style="rounded=1;whiteSpace=wrap;html=1;" vertex="1" parent="1">
          <mxGeometry x="140" y="350" width="120" height="60" as="geometry" />
        </mxCell>
        <mxCell id="-P5G61NLytEn9Pn_Injq-31" value="" style="edgeStyle=orthogonalEdgeStyle;rounded=0;orthogonalLoop=1;jettySize=auto;html=1;" edge="1" parent="1" source="-P5G61NLytEn9Pn_Injq-29" target="-P5G61NLytEn9Pn_Injq-18">
          <mxGeometry relative="1" as="geometry" />
        </mxCell>
        <mxCell id="-P5G61NLytEn9Pn_Injq-29" value="更新校准参数&lt;br style=&quot;border-color: var(--border-color);&quot;&gt;更新坐标映射" style="rounded=1;whiteSpace=wrap;html=1;" vertex="1" parent="1">
          <mxGeometry x="140" y="250" width="120" height="60" as="geometry" />
        </mxCell>
      </root>
    </mxGraphModel>
  </diagram>
</mxfile>
